<?xml version="1.0" encoding="UTF-8" standalone="no"?>
<!-- Created with Inkscape (http://www.inkscape.org/) -->

<svg
   xmlns:dc="http://purl.org/dc/elements/1.1/"
   xmlns:cc="http://creativecommons.org/ns#"
   xmlns:rdf="http://www.w3.org/1999/02/22-rdf-syntax-ns#"
   xmlns:svg="http://www.w3.org/2000/svg"
   xmlns="http://www.w3.org/2000/svg"
   xmlns:sodipodi="http://sodipodi.sourceforge.net/DTD/sodipodi-0.dtd"
   xmlns:inkscape="http://www.inkscape.org/namespaces/inkscape"
   width="111.35651mm"
   height="43.790131mm"
   viewBox="0 0 111.35652 43.790131"
   version="1.1"
   id="svg8"
   inkscape:version="0.92.2 (5c3e80d, 2017-08-06)"
   sodipodi:docname="logo_white.svg">
  <defs
     id="defs2" />
  <sodipodi:namedview
     id="base"
     pagecolor="#ffffff"
     bordercolor="#666666"
     borderopacity="1.0"
     inkscape:pageopacity="0.0"
     inkscape:pageshadow="2"
     inkscape:zoom="0.98994949"
     inkscape:cx="474.37077"
     inkscape:cy="193.74149"
     inkscape:document-units="mm"
     inkscape:current-layer="layer1"
     showgrid="true"
     inkscape:window-width="1600"
     inkscape:window-height="837"
     inkscape:window-x="-8"
     inkscape:window-y="-8"
     inkscape:window-maximized="1">
    <inkscape:grid
       type="xygrid"
       id="grid27"
       originx="-43.697655"
       originy="-145.30757" />
  </sodipodi:namedview>
  <metadata
     id="metadata5">
    <rdf:RDF>
      <cc:Work
         rdf:about="">
        <dc:format>image/svg+xml</dc:format>
        <dc:type
           rdf:resource="http://purl.org/dc/dcmitype/StillImage" />
        <dc:title />
      </cc:Work>
    </rdf:RDF>
  </metadata>
  <g
     inkscape:label="Layer 1"
     inkscape:groupmode="layer"
     id="layer1"
     transform="translate(-43.697647,-107.90229)">
    <g
       id="layer101"
       transform="matrix(0.02645833,0,0,0.02645833,86.148335,104.25104)"
       style="fill:#ffffff;stroke:none">
      <path
         id="path10"
         d="m 194,798 c 24,-34 24,-584 0,-630 l -16,-30 214,4 c 248,6 279,13 362,89 77,70 100,128 101,249 0,83 -4,102 -28,155 -34,73 -76,118 -142,153 -49,27 -53,27 -279,30 l -228,3 z m 407,-54 c 104,-61 104,-203 0,-256 l -33,-16 34,-16 c 45,-22 68,-63 68,-124 0,-35 -6,-57 -22,-77 -34,-44 -75,-55 -198,-55 H 340 v 278 c 0,153 3,282 8,286 4,5 55,6 113,4 82,-3 114,-9 140,-24 z M 779,489 c 22,-18 22,-18 2,-28 -12,-7 -23,-28 -29,-54 l -9,-42 -7,43 c -5,27 -15,46 -28,53 -20,11 -20,11 1,25 13,9 24,32 28,57 l 7,42 7,-39 c 4,-22 16,-47 28,-57 z"
         inkscape:connector-curvature="0"
         style="fill:#ffffff" />
    </g>
    <text
       xml:space="preserve"
       style="font-style:normal;font-variant:normal;font-weight:normal;font-stretch:normal;font-size:10.58333302px;line-height:1.25;font-family:'Roboto Slab';-inkscape-font-specification:'Roboto Slab';letter-spacing:0px;word-spacing:0px;fill:#ffffff;fill-opacity:1;stroke:none;stroke-width:0.26458332;"
       x="43.360027"
       y="147.58311"
       id="text25"><tspan
         sodipodi:role="line"
         id="tspan23"
         x="43.360027"
         y="147.58311"
         style="font-style:normal;font-variant:normal;font-weight:bold;font-stretch:normal;font-size:19.75555611px;font-family:Roboto;-inkscape-font-specification:'Roboto Bold';fill:#ffffff;stroke-width:0.26458332;">WeddingCon</tspan></text>
  </g>
</svg>
