<?xml version="1.0" encoding="UTF-8" standalone="no"?>
<svg
   xmlns:dc="http://purl.org/dc/elements/1.1/"
   xmlns:cc="http://creativecommons.org/ns#"
   xmlns:rdf="http://www.w3.org/1999/02/22-rdf-syntax-ns#"
   xmlns:svg="http://www.w3.org/2000/svg"
   xmlns="http://www.w3.org/2000/svg"
   xmlns:sodipodi="http://sodipodi.sourceforge.net/DTD/sodipodi-0.dtd"
   xmlns:inkscape="http://www.inkscape.org/namespaces/inkscape"
   width="421"
   height="166"
   version="1.1"
   id="svg22"
   sodipodi:docname="logo-black.svg"
   inkscape:version="0.92.2 (5c3e80d, 2017-08-06)">
  <sodipodi:namedview
     pagecolor="#ffffff"
     bordercolor="#666666"
     borderopacity="1"
     objecttolerance="10"
     gridtolerance="10"
     guidetolerance="10"
     inkscape:pageopacity="0"
     inkscape:pageshadow="2"
     inkscape:window-width="1600"
     inkscape:window-height="837"
     id="namedview24"
     showgrid="false"
     inkscape:zoom="3.432304"
     inkscape:cx="210.5"
     inkscape:cy="83"
     inkscape:window-x="-8"
     inkscape:window-y="-8"
     inkscape:window-maximized="1"
     inkscape:current-layer="svg22" />
  <metadata
     id="metadata28">
    <rdf:RDF>
      <cc:Work
         rdf:about="">
        <dc:format>image/svg+xml</dc:format>
        <dc:type
           rdf:resource="http://purl.org/dc/dcmitype/StillImage" />
        <dc:title></dc:title>
      </cc:Work>
    </rdf:RDF>
  </metadata>
  <defs
     id="defs26" />
  <path
     id="path20"
     d="M396.35 110.78l.33 4.56c2.82-3.52 6.6-5.29 11.34-5.29 4.19 0 7.3 1.23 9.34 3.69 2.04 2.45 3.09 6.12 3.14 11v25.5h-10.54v-25.23c0-2.24-.49-3.86-1.46-4.86-.97-1.02-2.6-1.53-4.85-1.53a7.25 7.25 0 0 0-6.68 3.8v27.83h-10.54v-39.47zm-53.64 19.37c0-3.92.75-7.4 2.26-10.47a16.59 16.59 0 0 1 6.49-7.11 19.1 19.1 0 0 1 9.88-2.52c5.33 0 9.67 1.63 13.02 4.9 3.38 3.25 5.26 7.67 5.65 13.27l.08 2.7c0 6.05-1.7 10.91-5.07 14.59-3.38 3.64-7.92 5.46-13.6 5.46-5.7 0-10.24-1.82-13.64-5.46-3.38-3.65-5.07-8.61-5.07-14.89zm10.54.77c0 3.74.7 6.6 2.11 8.6 1.41 1.97 3.43 2.96 6.05 2.96 2.56 0 4.55-.98 5.98-2.92 1.44-1.97 2.16-5.1 2.16-9.41 0-3.67-.72-6.52-2.16-8.53a7 7 0 0 0-6.05-3.03c-2.58 0-4.57 1-5.98 3.02-1.41 2-2.12 5.1-2.12 9.3zm-15.4 1.64c-.41 5.71-2.53 10.21-6.34 13.5-3.8 3.27-8.8 4.91-15.03 4.91-6.8 0-12.17-2.28-16.08-6.85-3.9-4.6-5.84-10.9-5.84-18.9v-3.24c0-5.1.9-9.6 2.7-13.5a20.17 20.17 0 0 1 7.7-8.93 21.59 21.59 0 0 1 11.67-3.14c6.12 0 11.06 1.64 14.8 4.92 3.75 3.29 5.91 7.9 6.5 13.83h-10.94c-.27-3.43-1.23-5.91-2.89-7.44-1.63-1.56-4.12-2.33-7.47-2.33-3.65 0-6.39 1.3-8.2 3.94-1.8 2.6-2.73 6.64-2.78 12.14v4.01c0 5.74.86 9.94 2.59 12.58 1.75 2.65 4.5 3.98 8.24 3.98 3.38 0 5.9-.77 7.55-2.3 1.68-1.55 2.64-3.95 2.88-7.18zm-86.5-2.34c0-6.05 1.43-10.93 4.3-14.62 2.89-3.7 6.78-5.55 11.67-5.55 4.32 0 7.7 1.49 10.1 4.45l.44-3.71h9.55v38.14c0 3.46-.79 6.46-2.37 9.01a14.98 14.98 0 0 1-6.6 5.84c-2.84 1.34-6.17 2-10 2-2.89 0-5.7-.58-8.45-1.75-2.75-1.14-4.83-2.62-6.24-4.45l4.67-6.42a12.35 12.35 0 0 0 9.55 4.42c2.8 0 4.98-.76 6.53-2.27 1.56-1.48 2.34-3.6 2.34-6.34v-2.12c-2.43 2.75-5.63 4.12-9.6 4.12-4.74 0-8.58-1.84-11.52-5.54-2.92-3.72-4.38-8.64-4.38-14.77zm10.53.77c0 3.57.72 6.38 2.15 8.42a6.86 6.86 0 0 0 5.91 3.03c3.21 0 5.51-1.2 6.9-3.6v-16.6c-1.41-2.41-3.69-3.62-6.83-3.62a6.94 6.94 0 0 0-5.98 3.1c-1.43 2.07-2.15 5.16-2.15 9.27zm-41.17-20.2l.32 4.55c2.82-3.52 6.6-5.29 11.34-5.29 4.19 0 7.3 1.23 9.35 3.69 2.04 2.45 3.08 6.12 3.13 11v25.5h-10.54v-25.23c0-2.24-.49-3.86-1.46-4.86-.97-1.02-2.59-1.53-4.85-1.53a7.25 7.25 0 0 0-6.68 3.8v27.83h-10.54v-39.47zm-18.42 39.46H191.7v-39.47h10.58zm-11.2-49.68c0-1.58.52-2.88 1.57-3.9a6.03 6.03 0 0 1 4.34-1.53c1.8 0 3.23.5 4.3 1.53a5.17 5.17 0 0 1 1.6 3.9c0 1.6-.54 2.92-1.64 3.94a5.92 5.92 0 0 1-4.26 1.53 6.06 6.06 0 0 1-4.3-1.53 5.2 5.2 0 0 1-1.61-3.94zm-43.73 29.65c0-6.15 1.38-11.05 4.12-14.7 2.77-3.64 6.56-5.47 11.34-5.47 3.85 0 7.02 1.44 9.52 4.3V94.23h10.58v56.03h-9.52l-.51-4.2a12.4 12.4 0 0 1-10.14 4.92c-4.64 0-8.37-1.82-11.2-5.46-2.79-3.68-4.19-8.77-4.19-15.29zm10.54.77c0 3.7.65 6.53 1.94 8.5a6.3 6.3 0 0 0 5.6 2.95c3.27 0 5.57-1.37 6.9-4.12v-15.57c-1.31-2.75-3.58-4.13-6.82-4.13-5.08 0-7.62 4.13-7.62 12.37zm-52.7-.77c0-6.15 1.37-11.05 4.12-14.7 2.77-3.64 6.55-5.47 11.34-5.47 3.85 0 7.02 1.44 9.52 4.3V94.23h10.58v56.03h-9.52l-.51-4.2a12.4 12.4 0 0 1-10.14 4.92c-4.64 0-8.38-1.82-11.2-5.46-2.8-3.68-4.2-8.77-4.2-15.29zm10.54.77c0 3.7.65 6.53 1.93 8.5a6.3 6.3 0 0 0 5.62 2.95c3.26 0 5.55-1.37 6.9-4.12v-15.57c-1.32-2.75-3.6-4.13-6.83-4.13-5.08 0-7.62 4.13-7.62 12.37zm-32.18 19.98c-5.79 0-10.5-1.77-14.15-5.32-3.62-3.55-5.43-8.28-5.43-14.19v-1.02c0-3.96.76-7.5 2.3-10.61a16.78 16.78 0 0 1 6.48-7.22 18.28 18.28 0 0 1 9.64-2.56c5.4 0 9.63 1.7 12.72 5.1 3.11 3.41 4.67 8.24 4.67 14.49v4.3H74.66a9.83 9.83 0 0 0 3.06 6.2 9.4 9.4 0 0 0 6.53 2.34c4.06 0 7.24-1.47 9.52-4.42l5.18 5.8a15.95 15.95 0 0 1-6.42 5.26 21.26 21.26 0 0 1-8.97 1.85zm-1.2-32.38c-2.1 0-3.8.7-5.11 2.11-1.29 1.41-2.12 3.43-2.48 6.06h14.66v-.84c-.05-2.33-.68-4.14-1.9-5.4-1.2-1.29-2.94-1.93-5.18-1.93zm-37.04 16.34l7.15-37.79h10.9l-11.77 53.1H40.58l-8.64-35.52-8.64 35.53H12.28L.5 97.14h10.9l7.19 37.71 8.75-37.71h9.26zm134.06-68.7c2.4-3.4 2.4-58.41 0-63.01l-1.6-3 21.4.4c24.8.6 27.91 1.3 36.22 8.9 7.7 7 10 12.8 10.1 24.9 0 8.31-.4 10.21-2.8 15.5-3.4 7.31-7.6 11.81-14.2 15.32-4.9 2.7-5.31 2.7-27.92 3l-22.8.3zm40.7-5.4c10.41-6.1 10.41-20.3 0-25.6l-3.3-1.6 3.4-1.6c4.51-2.2 6.81-6.3 6.81-12.4 0-3.5-.6-5.7-2.2-7.7-3.4-4.41-7.5-5.51-19.8-5.51h-11.01v27.81c0 15.3.3 28.2.8 28.61.4.5 5.5.6 11.3.4 8.2-.3 11.4-.9 14-2.4zm17.82-25.5c2.2-1.8 2.2-1.8.2-2.8-1.2-.7-2.3-2.8-2.9-5.4l-.9-4.2-.7 4.3c-.5 2.7-1.5 4.6-2.8 5.3-2 1.1-2 1.1.1 2.5 1.3.9 2.4 3.2 2.8 5.7l.7 4.2.7-3.9c.4-2.2 1.6-4.7 2.8-5.7z"
     fill="#000000" />
</svg>
